<?xml version="1.0" encoding="utf-8"?>
<!-- Generator: Adobe Illustrator 22.0.1, SVG Export Plug-In . SVG Version: 6.00 Build 0)  -->
<svg version="1.1" id="Layer_1" xmlns="http://www.w3.org/2000/svg" xmlns:xlink="http://www.w3.org/1999/xlink" x="0px" y="0px"
	 viewBox="0 0 24 25" style="enable-background:new 0 0 24 25;" xml:space="preserve">
<style type="text/css">
	.st0{fill:none;stroke:#08353B;stroke-miterlimit:10;}
</style>
<path class="st0" d="M7.1,9.1c1.8,3.7,4.4,6.3,8,8c0.5-0.6,1-1.2,1.6-1.7c0.9-0.8,1.8-0.8,2.7,0c1.1,1.1,2.2,2.2,3.3,3.3
	c0.8,0.9,0.8,1.8,0,2.8c-1.8,2-4.1,2.5-6.5,1.7c-1.8-0.6-3.6-1.4-5.2-2.4c-3.7-2.4-6.7-5.6-8.8-9.5C0.6,8.5,0.2,5.6,1.9,2.8
	C2.2,2.3,2.6,1.9,3,1.5c0.8-0.7,1.7-0.7,2.5,0c1.1,1.1,2.3,2.2,3.3,3.3c0.8,0.9,0.8,1.8,0,2.7C8.3,8.1,7.7,8.6,7.1,9.1z"/>
</svg>
