<?xml version="1.0" encoding="utf-8"?>
<!-- Generator: Adobe Illustrator 22.0.1, SVG Export Plug-In . SVG Version: 6.00 Build 0)  -->
<svg version="1.1" id="Layer_1" xmlns="http://www.w3.org/2000/svg" xmlns:xlink="http://www.w3.org/1999/xlink" x="0px" y="0px"
	 viewBox="0 0 35 25" style="enable-background:new 0 0 35 25;" xml:space="preserve">
<style type="text/css">
	.st0{fill:none;stroke:#08353B;stroke-miterlimit:10;stroke-width:2;}
</style>
<path class="st0" d="M12.8,9.7c1.8,3.7,4.4,6.3,8,8c0.5-0.6,1-1.2,1.6-1.7c0.9-0.8,1.8-0.8,2.7,0c1.1,1.1,2.2,2.2,3.3,3.3
	c0.8,0.9,0.8,1.8,0,2.8c-1.8,2-4.1,2.5-6.5,1.7c-1.8-0.6-3.6-1.4-5.2-2.4C13,19,10,15.8,7.9,11.9c-1.6-2.8-2-5.7-0.3-8.5
	c0.3-0.5,0.7-0.9,1.1-1.3c0.8-0.7,1.7-0.7,2.5,0c1.1,1.1,2.3,2.2,3.3,3.3c0.8,0.9,0.8,1.8,0,2.7C14,8.7,13.4,9.2,12.8,9.7z"/>
</svg>
