<?xml version="1.0" encoding="utf-8"?>
<!-- Generator: Adobe Illustrator 22.0.1, SVG Export Plug-In . SVG Version: 6.00 Build 0)  -->
<svg version="1.1" id="Layer_1" xmlns="http://www.w3.org/2000/svg" xmlns:xlink="http://www.w3.org/1999/xlink" x="0px" y="0px"
	 viewBox="0 0 35 25" style="enable-background:new 0 0 35 25;" xml:space="preserve">
<style type="text/css">
	.st0{fill:none;stroke:#08353B;stroke-miterlimit:10;}
	.st1{fill:#08353B;}
</style>
<g>
	<path class="st0" d="M34.2,23.7H1.7V4.2c0-1.6,1.3-2.8,2.8-2.8h26.9c1.6,0,2.8,1.3,2.8,2.8V23.7z"/>
	<rect x="3.5" y="5.7" class="st0" width="28.7" height="15.9"/>
	<g>
		<circle class="st1" cx="4.4" cy="3.6" r="0.9"/>
		<circle class="st1" cx="7.2" cy="3.6" r="0.9"/>
		<circle class="st1" cx="10.1" cy="3.6" r="0.9"/>
	</g>
	<polygon class="st1" points="26.6,17.1 27.3,20.6 28,19.1 29.5,18.9 	"/>
	<g>
		<path class="st1" d="M18.9,14.5c0.3-1.1,0.6-2.2,0.8-3.3c0.3,0,0.6,0,1,0c0,0.1-0.1,0.2-0.1,0.3c-0.3,1-0.6,2-0.9,3
			c-0.1,0.4-0.2,0.8-0.3,1.1c0,0.1-0.1,0.1-0.2,0.1c-0.2,0-0.4,0-0.7,0c-0.1,0-0.1,0-0.2-0.1c-0.2-0.6-0.3-1.2-0.5-1.8
			c-0.1-0.4-0.2-0.8-0.3-1.1c0,0,0,0.1,0,0.1c-0.3,1-0.5,1.9-0.8,2.9c0,0.1-0.1,0.1-0.2,0.1c-0.2,0-0.5,0-0.7,0
			c-0.1,0-0.1,0-0.1-0.1c-0.4-1.5-0.8-2.9-1.2-4.4c0,0,0-0.1,0-0.1c0.2,0,0.4,0,0.5,0c0,0,0.1,0,0.1,0c0.3,0,0.3,0,0.4,0.3
			c0.2,0.9,0.5,1.9,0.7,2.8c0,0,0,0.1,0,0.1c0.1-0.4,0.2-0.8,0.3-1.1c0.2-0.7,0.4-1.4,0.6-2.1c0-0.1,0.1-0.1,0.1-0.1
			c0.2,0,0.3,0,0.5,0c0.1,0,0.1,0,0.2,0.1c0.1,0.6,0.3,1.1,0.5,1.7C18.6,13.5,18.7,14,18.9,14.5C18.9,14.4,18.9,14.5,18.9,14.5z"/>
		<path class="st1" d="M7.9,11.2c0.3,0,0.6,0,0.9,0c0,0,0.1,0,0.1,0.1c0.2,0.6,0.3,1.3,0.5,1.9c0.1,0.4,0.2,0.8,0.3,1.2c0,0,0,0,0,0
			c0.1-0.2,0.1-0.4,0.2-0.6c0.2-0.9,0.5-1.7,0.7-2.6c0-0.1,0-0.1,0.1-0.1c0.2,0,0.3,0,0.5,0c0.1,0,0.1,0,0.1,0.1c0.3,1,0.5,2,0.8,3
			c0,0,0,0.1,0.1,0.1c0.1-0.2,0.1-0.5,0.2-0.7c0.2-0.8,0.4-1.5,0.6-2.3c0.1-0.2,0.1-0.2,0.3-0.2c0.2,0,0.5,0,0.7,0
			c0,0.1,0,0.2-0.1,0.3c-0.3,1-0.5,1.9-0.8,2.9c-0.1,0.4-0.3,0.9-0.4,1.3c0,0.1-0.1,0.1-0.2,0.1c-0.2,0-0.5,0-0.7,0
			c-0.1,0-0.1,0-0.1-0.1c-0.1-0.6-0.3-1.1-0.4-1.7c-0.1-0.4-0.2-0.9-0.3-1.3c0,0,0,0,0-0.1c-0.1,0.3-0.2,0.6-0.2,0.8
			c-0.2,0.7-0.3,1.3-0.5,2c0,0.1,0,0.2-0.1,0.3c-0.1,0.1-0.2,0-0.3,0c-0.2,0-0.3,0-0.5,0c-0.1,0-0.1,0-0.1-0.1
			c-0.3-1-0.6-2.1-0.9-3.1c-0.1-0.4-0.2-0.8-0.3-1.2C7.9,11.3,7.9,11.3,7.9,11.2z"/>
		<path class="st1" d="M25.7,14.5c0.3-1.1,0.5-2.2,0.8-3.3c0.3,0,0.6,0,1,0c0,0.1,0,0.1,0,0.2c-0.4,1.3-0.8,2.6-1.1,4
			c0,0.1-0.1,0.2-0.1,0.3c0,0.1-0.1,0.1-0.1,0.1c-0.2,0-0.5,0-0.7,0c-0.1,0-0.2,0-0.2-0.1c-0.1-0.6-0.3-1.1-0.4-1.7
			c-0.1-0.4-0.2-0.9-0.4-1.3c-0.1,0.2-0.1,0.4-0.2,0.6c-0.2,0.8-0.4,1.6-0.6,2.4c0,0.1-0.1,0.1-0.2,0.1c-0.2,0-0.4,0-0.7,0
			c-0.1,0-0.1,0-0.2-0.1c-0.2-0.6-0.3-1.1-0.5-1.7c-0.2-0.7-0.4-1.5-0.6-2.2c0-0.2-0.1-0.3-0.1-0.5c0-0.1,0-0.1,0.1-0.1
			c0.3,0,0.5,0,0.8,0c0.1,0,0.1,0,0.1,0.1c0.1,0.5,0.3,1,0.4,1.5c0.1,0.5,0.3,1,0.4,1.5c0,0,0,0.1,0,0.1c0.1-0.2,0.1-0.4,0.2-0.6
			c0.2-0.9,0.5-1.7,0.7-2.6c0-0.1,0-0.1,0.1-0.1c0.2,0,0.3,0,0.5,0c0.1,0,0.1,0,0.1,0.1c0.2,0.8,0.4,1.6,0.6,2.4
			C25.5,13.9,25.6,14.2,25.7,14.5C25.6,14.5,25.6,14.5,25.7,14.5z"/>
	</g>
</g>
</svg>
